<svg width="40" height="40" viewBox="0 0 40 40" fill="none" xmlns="http://www.w3.org/2000/svg">
<rect width="40" height="40" rx="20" fill="#FFAE00"/>
<g clip-path="url(#clip0_84_4783)">
<path d="M17.4035 27.027L11.9676 21.5911C11.7918 21.4153 11.693 21.1769 11.693 20.9282C11.693 20.6796 11.7918 20.4411 11.9676 20.2653C12.1434 20.0895 12.3819 19.9907 12.6305 19.9907C12.8792 19.9907 13.1176 20.0895 13.2934 20.2653L16.608 23.5799L17.1383 23.0496L12.2328 18.144C12.057 17.9682 11.9582 17.7297 11.9582 17.4811C11.9582 17.2324 12.057 16.994 12.2328 16.8182C12.4086 16.6424 12.647 16.5436 12.8957 16.5436C13.1443 16.5436 13.3828 16.6424 13.5586 16.8182L18.4642 21.7237L18.9945 21.1934L13.2934 15.4924C13.1176 15.3165 13.0188 15.0781 13.0188 14.8294C13.0188 14.5808 13.1176 14.3423 13.2934 14.1665C13.4693 13.9907 13.7077 13.8919 13.9563 13.8919C14.205 13.8919 14.4434 13.9907 14.6193 14.1665L20.3203 19.8676L20.8506 19.3372L16.2103 14.6969C16.0344 14.521 15.9357 14.2826 15.9357 14.0339C15.9357 13.7853 16.0344 13.5468 16.2103 13.371C16.3861 13.1952 16.6245 13.0964 16.8732 13.0964C17.1218 13.0964 17.3603 13.1952 17.5361 13.371L23.7675 19.6024L24.1652 19.2047L23.0409 16.5848C22.8659 16.1765 22.8871 15.7098 23.0833 15.312L23.3644 14.7552C23.4289 14.6281 23.5282 14.522 23.6509 14.4493C23.7735 14.3766 23.9142 14.3404 24.0567 14.3448C24.1992 14.3493 24.3374 14.3942 24.4553 14.4744C24.5731 14.5546 24.6656 14.6667 24.722 14.7976L27.1616 20.4509C28.1109 22.6836 27.6177 25.2982 25.8888 27.027C23.5447 29.3711 19.7476 29.3711 17.4035 27.027Z" fill="white"/>
</g>
<defs>
<clipPath id="clip0_84_4783">
<rect width="18" height="18" fill="white" transform="translate(11 11)"/>
</clipPath>
</defs>
</svg>
