<svg width="40" height="40" viewBox="0 0 40 40" fill="none" xmlns="http://www.w3.org/2000/svg">
<path d="M29.4868 18.5392C29.3145 18.4566 29.1395 18.3772 28.9622 18.3011C28.6535 12.6121 25.5449 9.35521 20.3253 9.32187C20.3017 9.32173 20.2781 9.32173 20.2545 9.32173C17.1325 9.32173 14.536 10.6544 12.9378 13.0793L15.8085 15.0485C17.0023 13.2371 18.876 12.851 20.2559 12.851C20.2718 12.851 20.2878 12.851 20.3036 12.8511C22.0222 12.8621 23.3191 13.3618 24.1585 14.3363C24.7693 15.0457 25.1778 16.026 25.3801 17.2633C23.8564 17.0043 22.2085 16.9247 20.4468 17.0257C15.4842 17.3115 12.2939 20.2058 12.5082 24.2275C12.6169 26.2675 13.6332 28.0225 15.3697 29.169C16.8379 30.1381 18.7289 30.6121 20.6941 30.5048C23.2895 30.3625 25.3255 29.3723 26.746 27.5617C27.8247 26.1867 28.507 24.4048 28.8083 22.1596C30.0451 22.906 30.9618 23.8883 31.468 25.0692C32.3289 27.0765 32.3791 30.375 29.6876 33.0642C27.3295 35.42 24.4949 36.4392 20.2111 36.4706C15.4591 36.4354 11.8653 34.9115 9.52869 31.941C7.34065 29.1596 6.20986 25.1421 6.16767 20C6.20986 14.8579 7.34065 10.8403 9.52869 8.0589C11.8653 5.08852 15.4591 3.56458 20.211 3.52927C24.9974 3.56485 28.6539 5.09612 31.0799 8.08083C32.2695 9.5445 33.1664 11.3852 33.7576 13.5313L37.1216 12.6338C36.4049 9.99212 35.2772 7.71577 33.7426 5.82792C30.6324 2.00139 26.0837 0.0406558 20.2227 0H20.1993C14.3503 0.0405146 9.85244 2.00871 6.83081 5.84985C4.14198 9.268 2.755 14.0241 2.7084 19.9859L2.70825 20L2.7084 20.0141C2.755 25.9758 4.14198 30.7321 6.83081 34.1502C9.85244 37.9912 14.3503 39.9596 20.1993 40H20.2227C25.4228 39.964 29.0883 38.6025 32.1078 35.5856C36.0585 31.6388 35.9395 26.6915 34.6374 23.6544C33.7033 21.4765 31.9222 19.7075 29.4868 18.5392ZM20.5084 26.9806C18.3334 27.1031 16.0738 26.1269 15.9623 24.0358C15.8798 22.4854 17.0657 20.7554 20.6418 20.5493C21.0514 20.5257 21.4533 20.5142 21.848 20.5142C23.147 20.5142 24.3622 20.6404 25.467 20.8819C25.0549 26.0281 22.6378 26.8638 20.5084 26.9806Z" fill="white"/>
</svg>
