<svg width="24" height="24" viewBox="0 0 24 24" fill="none" xmlns="http://www.w3.org/2000/svg">
<path fill-rule="evenodd" clip-rule="evenodd" d="M4.49365 10.9761C4.49365 7.39582 7.39607 4.49341 10.9764 4.49341C14.5567 4.49341 17.4591 7.39582 17.4591 10.9761C17.4591 14.5564 14.5567 17.4589 10.9764 17.4589C7.39607 17.4589 4.49365 14.5564 4.49365 10.9761ZM10.9764 1.49341C5.73921 1.49341 1.49365 5.73897 1.49365 10.9761C1.49365 16.2133 5.73921 20.4589 10.9764 20.4589C13.309 20.4589 15.4448 19.6167 17.0965 18.2197L20.892 22.0152C21.4778 22.601 22.4275 22.601 23.0133 22.0152C23.5991 21.4294 23.5991 20.4797 23.0133 19.8939L19.0583 15.9389C19.9467 14.4953 20.4591 12.7956 20.4591 10.9761C20.4591 5.73897 16.2135 1.49341 10.9764 1.49341Z" fill="#141414"/>
</svg>
