<svg width="20" height="21" viewBox="0 0 20 21" fill="none" xmlns="http://www.w3.org/2000/svg">
<g clip-path="url(#clip0_84_5163)">
<path d="M16.665 8.41414C16.444 8.41414 16.232 8.50194 16.0757 8.65822C15.9195 8.8145 15.8317 9.02646 15.8317 9.24747V12.7708C15.8308 13.4933 15.5434 14.1859 15.0326 14.6967C14.5217 15.2075 13.8291 15.4949 13.1067 15.4958H8.67917L10.1717 14.0066C10.3237 13.8497 10.408 13.6393 10.4064 13.4208C10.4048 13.2023 10.3175 12.9931 10.1632 12.8384C10.0089 12.6837 9.80001 12.5957 9.58151 12.5935C9.36301 12.5913 9.15238 12.675 8.995 12.8266L6.075 15.7391C5.91871 15.8955 5.83063 16.1073 5.83 16.3283V16.3291C5.83 16.3483 5.84 16.3641 5.84083 16.3833C5.8453 16.5858 5.92945 16.7783 6.075 16.9191L8.99333 19.8391C9.1505 19.9909 9.361 20.0749 9.5795 20.073C9.798 20.0711 10.007 19.9835 10.1615 19.829C10.316 19.6745 10.4037 19.4655 10.4056 19.247C10.4075 19.0285 10.3235 18.818 10.1717 18.6608L8.67417 17.1625H13.1058C14.2702 17.1611 15.3864 16.698 16.2097 15.8747C17.0331 15.0514 17.4962 13.9351 17.4975 12.7708V9.24747C17.4975 9.02646 17.4097 8.8145 17.2534 8.65822C17.0971 8.50194 16.886 8.41414 16.665 8.41414ZM11.3233 5.50081L9.8275 6.99664C9.74791 7.07351 9.68442 7.16547 9.64075 7.26714C9.59707 7.36881 9.57409 7.47816 9.57312 7.58881C9.57216 7.69945 9.59325 7.80919 9.63515 7.9116C9.67705 8.01402 9.73893 8.10706 9.81717 8.1853C9.89541 8.26355 9.98846 8.32542 10.0909 8.36732C10.1933 8.40923 10.303 8.43031 10.4137 8.42935C10.5243 8.42839 10.6337 8.4054 10.7353 8.36172C10.837 8.31805 10.929 8.25457 11.0058 8.17497L13.9225 5.25831C14.0789 5.10161 14.1667 4.88927 14.1667 4.66789C14.1667 4.44651 14.0789 4.23417 13.9225 4.07747L11.0058 1.16081C10.8487 1.00901 10.6382 0.925013 10.4197 0.926911C10.2012 0.92881 9.99216 1.01645 9.83765 1.17096C9.68314 1.32546 9.5955 1.53447 9.59361 1.75297C9.59171 1.97147 9.6757 2.18197 9.8275 2.33914L11.3225 3.83414H6.89167C5.7274 3.83568 4.61126 4.29887 3.78799 5.12213C2.96473 5.9454 2.50154 7.06154 2.5 8.22581V11.75C2.5 11.971 2.5878 12.1829 2.74408 12.3392C2.90036 12.4955 3.11232 12.5833 3.33333 12.5833C3.55435 12.5833 3.76631 12.4955 3.92259 12.3392C4.07887 12.1829 4.16667 11.971 4.16667 11.75V8.22581C4.16777 7.50329 4.45534 6.81069 4.96631 6.29986C5.47729 5.78904 6.16998 5.50169 6.8925 5.50081H11.3233Z" fill="#999999"/>
</g>
<defs>
<clipPath id="clip0_84_5163">
<rect width="20" height="20" fill="white" transform="translate(0 0.5)"/>
</clipPath>
</defs>
</svg>
