<svg width="20" height="20" viewBox="0 0 20 20" fill="none" xmlns="http://www.w3.org/2000/svg">
<path d="M14.9167 14.4917C14.7 13.8251 14.075 13.3334 13.3333 13.3334H12.5V10.8334C12.5 10.6124 12.4122 10.4004 12.2559 10.2442C12.0996 10.0879 11.8877 10.0001 11.6667 10.0001H6.66666V8.33341H8.33333C8.55434 8.33341 8.76631 8.24562 8.92259 8.08934C9.07887 7.93306 9.16666 7.7211 9.16666 7.50008V5.83341H10.8333C11.2754 5.83341 11.6993 5.65782 12.0118 5.34526C12.3244 5.0327 12.5 4.60878 12.5 4.16675V3.82508C13.4971 4.22705 14.3819 4.86464 15.0787 5.68328C15.7755 6.50191 16.2636 7.4772 16.5011 8.52567C16.7387 9.57414 16.7186 10.6646 16.4427 11.7036C16.1667 12.7426 15.6431 13.6993 14.9167 14.4917ZM9.16666 16.6084C5.875 16.2001 3.33333 13.4001 3.33333 10.0001C3.33333 9.48341 3.4 8.98341 3.50833 8.50841L7.5 12.5001V13.3334C7.5 13.7754 7.67559 14.1994 7.98815 14.5119C8.30071 14.8245 8.72464 15.0001 9.16666 15.0001M10 1.66675C8.90565 1.66675 7.82201 1.8823 6.81097 2.30109C5.79992 2.71987 4.88126 3.3337 4.10744 4.10752C2.54464 5.67033 1.66666 7.78994 1.66666 10.0001C1.66666 12.2102 2.54464 14.3298 4.10744 15.8926C4.88126 16.6665 5.79992 17.2803 6.81097 17.6991C7.82201 18.1179 8.90565 18.3334 10 18.3334C12.2101 18.3334 14.3298 17.4554 15.8926 15.8926C17.4554 14.3298 18.3333 12.2102 18.3333 10.0001C18.3333 8.90573 18.1178 7.8221 17.699 6.81105C17.2802 5.80001 16.6664 4.88135 15.8926 4.10752C15.1187 3.3337 14.2001 2.71987 13.189 2.30109C12.178 1.8823 11.0943 1.66675 10 1.66675Z" fill="#141414"/>
</svg>
