<svg width="20" height="20" viewBox="0 0 20 20" fill="none" xmlns="http://www.w3.org/2000/svg">
<path d="M17.5833 10.4166L18.75 11.5916L13.3083 17.0833L10.4167 14.1666L11.5833 12.9916L13.3083 14.7249L17.5833 10.4166ZM8.33333 14.1666L10.8333 16.6666H2.5V14.9999C2.5 13.1583 5.48333 11.6666 9.16667 11.6666L10.7417 11.7583L8.33333 14.1666ZM9.16667 3.33325C10.0507 3.33325 10.8986 3.68444 11.5237 4.30956C12.1488 4.93468 12.5 5.78253 12.5 6.66659C12.5 7.55064 12.1488 8.39849 11.5237 9.02361C10.8986 9.64873 10.0507 9.99992 9.16667 9.99992C8.28261 9.99992 7.43476 9.64873 6.80964 9.02361C6.18452 8.39849 5.83333 7.55064 5.83333 6.66659C5.83333 5.78253 6.18452 4.93468 6.80964 4.30956C7.43476 3.68444 8.28261 3.33325 9.16667 3.33325Z" fill="black"/>
</svg>
