<svg width="20" height="20" viewBox="0 0 20 20" fill="none" xmlns="http://www.w3.org/2000/svg">
<path d="M10 12.5001C10.675 12.5001 11.25 12.2501 11.7583 11.7584C12.25 11.2501 12.5 10.6751 12.5 10.0001C12.5 9.32508 12.25 8.75008 11.7583 8.24175C11.25 7.75008 10.675 7.50008 10 7.50008C9.325 7.50008 8.75 7.75008 8.24166 8.24175C7.75 8.75008 7.5 9.32508 7.5 10.0001C7.5 10.6751 7.75 11.2501 8.24166 11.7584C8.75 12.2501 9.325 12.5001 10 12.5001ZM10 1.66675C12.2917 1.66675 14.25 2.50008 15.875 4.12508C17.5 5.75008 18.3333 7.70841 18.3333 10.0001V11.2084C18.3333 12.0417 18.0417 12.7501 17.5 13.3334C16.9167 13.8917 16.25 14.1667 15.4167 14.1667C14.4167 14.1667 13.5917 13.7501 12.9667 12.9167C12.1333 13.7501 11.15 14.1667 10 14.1667C8.85833 14.1667 7.875 13.7501 7.05 12.9501C6.25 12.1251 5.83333 11.1501 5.83333 10.0001C5.83333 8.85841 6.25 7.87508 7.05 7.05008C7.875 6.25008 8.85833 5.83341 10 5.83341C11.15 5.83341 12.125 6.25008 12.95 7.05008C13.75 7.87508 14.1667 8.85841 14.1667 10.0001V11.2084C14.1667 11.5501 14.3 11.8501 14.55 12.1084C14.8 12.3667 15.0917 12.5001 15.4167 12.5001C15.7667 12.5001 16.0583 12.3667 16.3083 12.1084C16.5583 11.8501 16.6667 11.5501 16.6667 11.2084V10.0001C16.6667 8.17508 16.025 6.60841 14.7083 5.29175C13.3917 3.97508 11.825 3.33341 10 3.33341C8.175 3.33341 6.60833 3.97508 5.29166 5.29175C3.975 6.60841 3.33333 8.17508 3.33333 10.0001C3.33333 11.8251 3.975 13.3917 5.29166 14.7084C6.60833 16.0251 8.175 16.6667 10 16.6667H14.1667V18.3334H10C7.70833 18.3334 5.75 17.5001 4.125 15.8751C2.5 14.2501 1.66666 12.2917 1.66666 10.0001C1.66666 7.70841 2.5 5.75008 4.125 4.12508C5.75 2.50008 7.70833 1.66675 10 1.66675Z" fill="#141414"/>
</svg>
