<svg width="20" height="20" viewBox="0 0 20 20" fill="none" xmlns="http://www.w3.org/2000/svg">
<path d="M1.66663 4.99992C1.66663 4.55789 1.84222 4.13397 2.15478 3.82141C2.46734 3.50885 2.89127 3.33325 3.33329 3.33325H16.6666C17.1087 3.33325 17.5326 3.50885 17.8451 3.82141C18.1577 4.13397 18.3333 4.55789 18.3333 4.99992V14.1666C18.3333 14.6086 18.1577 15.0325 17.8451 15.3451C17.5326 15.6577 17.1087 15.8333 16.6666 15.8333H12.845L10.5891 18.0891C10.4329 18.2453 10.2209 18.3331 9.99996 18.3331C9.77899 18.3331 9.56707 18.2453 9.41079 18.0891L7.15496 15.8333H3.33329C2.89127 15.8333 2.46734 15.6577 2.15478 15.3451C1.84222 15.0325 1.66663 14.6086 1.66663 14.1666V4.99992ZM16.6666 4.99992H3.33329V14.1666H7.49996C7.72095 14.1666 7.93288 14.2545 8.08913 14.4108L9.99996 16.3216L11.9108 14.4108C12.067 14.2545 12.279 14.1666 12.5 14.1666H16.6666V4.99992Z" fill="black"/>
<path d="M11.25 9.58325C11.25 9.91477 11.1183 10.2327 10.8838 10.4671C10.6494 10.7016 10.3315 10.8333 9.99996 10.8333C9.66844 10.8333 9.3505 10.7016 9.11608 10.4671C8.88166 10.2327 8.74996 9.91477 8.74996 9.58325C8.74996 9.25173 8.88166 8.93379 9.11608 8.69937C9.3505 8.46495 9.66844 8.33325 9.99996 8.33325C10.3315 8.33325 10.6494 8.46495 10.8838 8.69937C11.1183 8.93379 11.25 9.25173 11.25 9.58325ZM14.5833 9.58325C14.5833 9.91477 14.4516 10.2327 14.2172 10.4671C13.9828 10.7016 13.6648 10.8333 13.3333 10.8333C13.0018 10.8333 12.6838 10.7016 12.4494 10.4671C12.215 10.2327 12.0833 9.91477 12.0833 9.58325C12.0833 9.25173 12.215 8.93379 12.4494 8.69937C12.6838 8.46495 13.0018 8.33325 13.3333 8.33325C13.6648 8.33325 13.9828 8.46495 14.2172 8.69937C14.4516 8.93379 14.5833 9.25173 14.5833 9.58325ZM7.91663 9.58325C7.91663 9.91477 7.78493 10.2327 7.55051 10.4671C7.31609 10.7016 6.99815 10.8333 6.66663 10.8333C6.33511 10.8333 6.01716 10.7016 5.78274 10.4671C5.54832 10.2327 5.41663 9.91477 5.41663 9.58325C5.41663 9.25173 5.54832 8.93379 5.78274 8.69937C6.01716 8.46495 6.33511 8.33325 6.66663 8.33325C6.99815 8.33325 7.31609 8.46495 7.55051 8.69937C7.78493 8.93379 7.91663 9.25173 7.91663 9.58325Z" fill="black"/>
</svg>
