<svg width="20" height="20" viewBox="0 0 20 20" fill="none" xmlns="http://www.w3.org/2000/svg">
<path d="M16.665 7.91414C16.444 7.91414 16.232 8.00194 16.0757 8.15822C15.9195 8.3145 15.8317 8.52646 15.8317 8.74747V12.2708C15.8308 12.9933 15.5434 13.6859 15.0326 14.1967C14.5217 14.7075 13.8291 14.9949 13.1067 14.9958H8.67917L10.1717 13.5066C10.3237 13.3497 10.408 13.1393 10.4064 12.9208C10.4048 12.7023 10.3175 12.4931 10.1632 12.3384C10.0089 12.1837 9.80001 12.0957 9.58151 12.0935C9.36301 12.0913 9.15238 12.175 8.995 12.3266L6.075 15.2391C5.91871 15.3955 5.83063 15.6073 5.83 15.8283V15.8291C5.83 15.8483 5.84 15.8641 5.84083 15.8833C5.8453 16.0858 5.92945 16.2783 6.075 16.4191L8.99333 19.3391C9.1505 19.4909 9.361 19.5749 9.5795 19.573C9.798 19.5711 10.007 19.4835 10.1615 19.329C10.316 19.1745 10.4037 18.9655 10.4056 18.747C10.4075 18.5285 10.3235 18.318 10.1717 18.1608L8.67417 16.6625H13.1058C14.2702 16.6611 15.3864 16.198 16.2097 15.3747C17.0331 14.5514 17.4962 13.4351 17.4975 12.2708V8.74747C17.4975 8.52646 17.4097 8.3145 17.2534 8.15822C17.0971 8.00194 16.886 7.91414 16.665 7.91414ZM11.3233 5.00081L9.8275 6.49664C9.74791 6.57351 9.68442 6.66547 9.64075 6.76714C9.59707 6.86881 9.57409 6.97816 9.57312 7.08881C9.57216 7.19945 9.59325 7.30919 9.63515 7.4116C9.67705 7.51402 9.73893 7.60706 9.81717 7.6853C9.89541 7.76355 9.98846 7.82542 10.0909 7.86732C10.1933 7.90923 10.303 7.93031 10.4137 7.92935C10.5243 7.92839 10.6337 7.9054 10.7353 7.86172C10.837 7.81805 10.929 7.75457 11.0058 7.67497L13.9225 4.75831C14.0789 4.60161 14.1667 4.38927 14.1667 4.16789C14.1667 3.94651 14.0789 3.73417 13.9225 3.57747L11.0058 0.660806C10.8487 0.509008 10.6382 0.425013 10.4197 0.426911C10.2012 0.42881 9.99216 0.516451 9.83765 0.670958C9.68314 0.825464 9.5955 1.03447 9.59361 1.25297C9.59171 1.47147 9.6757 1.68197 9.8275 1.83914L11.3225 3.33414H6.89167C5.7274 3.33568 4.61126 3.79887 3.78799 4.62213C2.96473 5.4454 2.50154 6.56154 2.5 7.72581V11.25C2.5 11.471 2.5878 11.6829 2.74408 11.8392C2.90036 11.9955 3.11232 12.0833 3.33333 12.0833C3.55435 12.0833 3.76631 11.9955 3.92259 11.8392C4.07887 11.6829 4.16667 11.471 4.16667 11.25V7.72581C4.16777 7.00329 4.45534 6.31069 4.96631 5.79986C5.47729 5.28904 6.16998 5.00169 6.8925 5.00081H11.3233Z" fill="black"/>
</svg>
