<svg width="20" height="20" viewBox="0 0 20 20" fill="none" xmlns="http://www.w3.org/2000/svg">
<path d="M16.665 7.91426C16.444 7.91426 16.232 8.00206 16.0757 8.15834C15.9195 8.31462 15.8317 8.52658 15.8317 8.7476V12.2709C15.8308 12.9934 15.5434 13.686 15.0326 14.1968C14.5217 14.7077 13.8291 14.995 13.1067 14.9959H8.67917L10.1717 13.5068C10.3237 13.3498 10.408 13.1394 10.4064 12.9209C10.4048 12.7024 10.3175 12.4933 10.1632 12.3385C10.0089 12.1838 9.80001 12.0959 9.58151 12.0937C9.36301 12.0915 9.15238 12.1752 8.995 12.3268L6.075 15.2393C5.91871 15.3956 5.83063 15.6074 5.83 15.8284V15.8293C5.83 15.8484 5.84 15.8643 5.84083 15.8834C5.8453 16.0859 5.92945 16.2784 6.075 16.4193L8.99333 19.3393C9.1505 19.4911 9.361 19.5751 9.5795 19.5732C9.798 19.5713 10.007 19.4836 10.1615 19.3291C10.316 19.1746 10.4037 18.9656 10.4056 18.7471C10.4075 18.5286 10.3235 18.3181 10.1717 18.1609L8.67417 16.6626H13.1058C14.2702 16.6613 15.3864 16.1982 16.2097 15.3748C17.0331 14.5515 17.4962 13.4353 17.4975 12.2709V8.7476C17.4975 8.52658 17.4097 8.31462 17.2534 8.15834C17.0971 8.00206 16.886 7.91426 16.665 7.91426ZM11.3233 5.00093L9.8275 6.49676C9.74791 6.57363 9.68442 6.66559 9.64075 6.76726C9.59707 6.86893 9.57409 6.97828 9.57312 7.08893C9.57216 7.19958 9.59325 7.30931 9.63515 7.41172C9.67705 7.51414 9.73893 7.60718 9.81717 7.68542C9.89541 7.76367 9.98846 7.82555 10.0909 7.86745C10.1933 7.90935 10.303 7.93043 10.4137 7.92947C10.5243 7.92851 10.6337 7.90552 10.7353 7.86185C10.837 7.81817 10.929 7.75469 11.0058 7.6751L13.9225 4.75843C14.0789 4.60173 14.1667 4.38939 14.1667 4.16801C14.1667 3.94663 14.0789 3.7343 13.9225 3.5776L11.0058 0.660928C10.8487 0.50913 10.6382 0.425135 10.4197 0.427033C10.2012 0.428932 9.99216 0.516573 9.83765 0.67108C9.68314 0.825586 9.5955 1.0346 9.59361 1.25309C9.59171 1.47159 9.6757 1.68209 9.8275 1.83926L11.3225 3.33426H6.89167C5.7274 3.33581 4.61126 3.79899 3.78799 4.62226C2.96473 5.44552 2.50154 6.56166 2.5 7.72593V11.2501C2.5 11.4711 2.5878 11.6831 2.74408 11.8394C2.90036 11.9956 3.11232 12.0834 3.33333 12.0834C3.55435 12.0834 3.76631 11.9956 3.92259 11.8394C4.07887 11.6831 4.16667 11.4711 4.16667 11.2501V7.72593C4.16777 7.00341 4.45534 6.31081 4.96631 5.79999C5.47729 5.28916 6.16998 5.00181 6.8925 5.00093H11.3233Z" fill="#FF453A"/>
</svg>
