<svg width="100" height="100" viewBox="0 0 100 100" fill="none" xmlns="http://www.w3.org/2000/svg">
<g clip-path="url(#clip0_84_5441)">
<rect width="100" height="100" rx="50" fill="#D9D9D9"/>
<g clip-path="url(#clip1_84_5441)">
<path d="M50 64.5714C54.8497 64.5714 59.5007 62.6449 62.93 59.2157C66.3592 55.7864 68.2857 51.1354 68.2857 46.2857C68.2857 41.436 66.3592 36.785 62.93 33.3558C59.5007 29.9265 54.8497 28 50 28C45.1503 28 40.4993 29.9265 37.07 33.3558C33.6408 36.785 31.7143 41.436 31.7143 46.2857C31.7143 51.1354 33.6408 55.7864 37.07 59.2157C40.4993 62.6449 45.1503 64.5714 50 64.5714ZM43.4714 71.4286C29.4 71.4286 18 82.8286 18 96.9C18 99.2429 19.9 101.143 22.2429 101.143H77.7571C80.1 101.143 82 99.2429 82 96.9C82 82.8286 70.6 71.4286 56.5286 71.4286H43.4714Z" fill="white"/>
</g>
</g>
<rect x="0.5" y="0.5" width="99" height="99" rx="49.5" stroke="#D9D9D9"/>
<defs>
<clipPath id="clip0_84_5441">
<rect width="100" height="100" rx="50" fill="white"/>
</clipPath>
<clipPath id="clip1_84_5441">
<rect width="64" height="73.1429" fill="white" transform="translate(18 28)"/>
</clipPath>
</defs>
</svg>
