<svg width="24" height="24" viewBox="0 0 24 24" fill="none" xmlns="http://www.w3.org/2000/svg">
<path d="M6.27259 17.7272C5.06344 16.518 5.06344 14.5523 6.27259 13.3431L9.10102 10.5147L7.75752 9.1712L4.92909 11.9996C3.99141 12.9373 3.46462 14.2091 3.46462 15.5352C3.46462 16.8612 3.99141 18.133 4.92909 19.0707C5.86677 20.0084 7.13854 20.5352 8.46462 20.5352C9.79071 20.5352 11.0625 20.0084 12.0002 19.0707L14.8286 16.2423L13.4851 14.8988L10.6567 17.7272C9.4475 18.9363 7.48174 18.9363 6.27259 17.7272ZM9.87884 15.5352L15.5357 9.8783L14.1215 8.46409L8.46462 14.1209L9.87884 15.5352ZM12.0002 4.92855L9.17173 7.75698L10.5152 9.10048L13.3437 6.27206C14.5528 5.06291 16.5186 5.0629 17.7277 6.27206C18.9369 7.48121 18.9369 9.44697 17.7277 10.6561L14.8993 13.4845L16.2428 14.828L19.0712 11.9996C20.0089 11.0619 20.5357 9.79017 20.5357 8.46409C20.5357 7.13801 20.0089 5.86624 19.0712 4.92855C18.1335 3.99087 16.8618 3.46409 15.5357 3.46409C14.2096 3.46409 12.9378 3.99087 12.0002 4.92855Z" fill="#141414"/>
</svg>
