<svg width="24" height="24" viewBox="0 0 24 24" fill="none" xmlns="http://www.w3.org/2000/svg">
<g clip-path="url(#clip0_149_2693)">
<path d="M19.5711 10.5858L11.4394 18.7175C10.6893 19.4677 9.67185 19.8891 8.61099 19.8891C7.55012 19.8891 6.5327 19.4677 5.78256 18.7175C5.03241 17.9674 4.61099 16.95 4.61099 15.8891C4.61099 14.8282 5.03241 13.8108 5.78256 13.0607L14.6214 4.22185C15.0902 3.75301 15.7261 3.48962 16.3892 3.48962C17.0522 3.48962 17.6881 3.75301 18.1569 4.22185C18.6258 4.69069 18.8892 5.32658 18.8892 5.98962C18.8892 6.65266 18.6258 7.28854 18.1569 7.75738L10.7323 15.182C10.5448 15.3695 10.2904 15.4749 10.0252 15.4749C9.75998 15.4749 9.50563 15.3695 9.31809 15.182C9.13056 14.9945 9.0252 14.7401 9.0252 14.4749C9.0252 14.2097 9.13056 13.9553 9.31809 13.7678L16.0356 7.05028L14.9749 5.98962L8.25743 12.7071C7.78859 13.176 7.5252 13.8119 7.5252 14.4749C7.5252 15.1379 7.78859 15.7738 8.25743 16.2427C8.72627 16.7115 9.36216 16.9749 10.0252 16.9749C10.6882 16.9749 11.3241 16.7115 11.793 16.2427L19.2176 8.81804C19.9677 8.0679 20.3892 7.05048 20.3892 5.98962C20.3892 4.92875 19.9677 3.91134 19.2176 3.16119C18.4674 2.41105 17.45 1.98962 16.3892 1.98962C15.3283 1.98962 14.3109 2.41105 13.5607 3.16119L4.7219 12C3.69045 13.0315 3.11099 14.4304 3.11099 15.8891C3.11099 17.3478 3.69045 18.7467 4.7219 19.7782C5.75335 20.8096 7.15229 21.3891 8.61099 21.3891C10.0697 21.3891 11.4686 20.8096 12.5001 19.7782L20.6318 11.6465L19.5711 10.5858Z" fill="#999999"/>
</g>
<defs>
<clipPath id="clip0_149_2693">
<rect width="24" height="24" fill="white"/>
</clipPath>
</defs>
</svg>
